<?xml version="1.0" encoding="UTF-8" standalone="no"?>
<svg xmlns="http://www.w3.org/2000/svg" viewBox="-280.6999999999991 -40.000000000000405 1789.0999999999992 2083.075582685831" width="1000" height="1000">
<path d="M 0.000000,0.000000 L 0.000000,250.000000 L 400.000000,250.000000 L 400.000000,0.000000 L 0.000000,0.000000" stroke="black" fill="none" />
<path d="M 0.000000,0.000000 L 0.000000,250.000000 L 639.800000,250.000000 L 639.800000,0.000000 L 0.000000,0.000000" stroke="black" fill="none" />
<path d="M 0.000000,0.000000 L 0.000000,775.000000 L 300.000000,775.000000 L 300.000000,0.000000 L 0.000000,0.000000" stroke="black" fill="none" />
<path d="M 0.000000,0.000000 L 0.000000,250.000000 L 400.000000,250.000000 L 400.000000,0.000000 L 0.000000,0.000000" stroke="black" fill="none" />
<path d="M 1508.400000,2043.075583 L 1342.574431,251.682023 L 0.000000,0.000000 L -166.176983,-0.000000 L -280.700000,684.958132 L 960.705276,684.958132 L 973.955276,1951.800000 L 1508.400000,2043.075583" stroke="black" fill="none" />
<path d="M 633.117022,0.000000 L 171.100000,0.000000 L 0.000000,1023.343078 L 1425.755276,1266.841868 L 1422.368074,855.000000 L 393.317022,855.000000 L 393.317022,523.799075 L 633.117022,523.999075 L 633.117022,0.000000" stroke="black" fill="none" />
<path d="M 0.000000,0.000000 L 0.000000,775.000000 L 150.000000,775.000000 L 150.000000,0.000000 L 0.000000,0.000000" stroke="black" fill="none" />
<path d="M 0.000000,0.000000 L 0.000000,775.000000 L 150.000000,775.000000 L 150.000000,0.000000 L 0.000000,0.000000" stroke="black" fill="none" />
<path d="M 0.000000,0.000000 L 0.000000,775.000000 L 200.000000,775.000000 L 200.000000,0.000000 L 0.000000,0.000000" stroke="black" fill="none" />
<path d="M 0.000000,0.000000 L 0.000000,250.000000 L 400.000000,250.000000 L 400.000000,0.000000 L 0.000000,0.000000" stroke="black" fill="none" />
<path d="M 0.000000,0.000000 L 0.000000,250.000000 L 400.000000,250.000000 L 400.000000,0.000000 L 0.000000,0.000000" stroke="black" fill="none" />
<path d="M 0.000000,0.000000 L 0.000000,250.000000 L 400.000000,250.000000 L 400.000000,0.000000 L 0.000000,0.000000" stroke="black" fill="none" />
<path d="M 0.000000,0.000000 L 0.000000,775.000000 L 952.300000,775.000000 L 952.300000,0.000000 L 0.000000,0.000000" stroke="black" fill="none" />
<path d="M 0.000000,-40.000000 L 0.000000,735.000000 L 712.500000,735.000000 L 712.500000,-40.000000 L 0.000000,-40.000000" stroke="black" fill="none" /></svg>