<?xml version="1.0" encoding="utf-8" ?>
<svg baseProfile="tiny" height="100%" version="1.2" width="100%" xmlns="http://www.w3.org/2000/svg" xmlns:ev="http://www.w3.org/2001/xml-events" xmlns:xlink="http://www.w3.org/1999/xlink"><defs /><polygon fill="#63909e" opacity="0.7" points="211.5225,291.6597 211.5225,352.842 309.4141,352.842 309.4141,291.6597 211.5225,291.6597" stroke="black" stroke-width="1" /><polygon fill="#63909e" opacity="0.7" points="152.8364,355.9011 152.8364,417.0834 309.4141,417.0834 309.4141,355.9011 152.8364,355.9011" stroke="black" stroke-width="1" /><polygon fill="#c216dd" opacity="0.7" points="312.4732,227.4183 312.4732,417.0834 385.8919,417.0834 385.8919,227.4183 312.4732,227.4183" stroke="black" stroke-width="1" /><polygon fill="#63909e" opacity="0.7" points="211.5225,227.4183 211.5225,288.6006 309.4141,288.6006 309.4141,227.4183 211.5225,227.4183" stroke="black" stroke-width="1" /><polygon fill="#30a0d7" opacity="0.7" points="91.8731,217.6292 395.6811,217.6292 398.9238,527.6622 529.7179,550.0 489.1356,111.5939 160.5686,50.0 119.9003,50.0 91.8731,217.6292" stroke="black" stroke-width="1" /><polygon fill="#60f67f" opacity="0.7" points="50.0,468.071 398.9238,527.6622 398.0948,426.8725 146.2561,426.8725 146.2561,345.818 204.9421,345.867 204.9421,217.6292 91.8731,217.6292 50.0,468.071" stroke="black" stroke-width="1" /><polygon fill="#65375f" opacity="0.7" points="349.1826,227.4183 349.1826,417.0834 385.8919,417.0834 385.8919,227.4183 349.1826,227.4183" stroke="black" stroke-width="1" /><polygon fill="#6d862f" opacity="0.7" points="312.4732,227.4183 312.4732,417.0834 349.1826,417.0834 349.1826,227.4183 312.4732,227.4183" stroke="black" stroke-width="1" /><polygon fill="#09711f" opacity="0.7" points="152.8364,227.4183 152.8364,417.0834 201.7823,417.0834 201.7823,227.4183 152.8364,227.4183" stroke="black" stroke-width="1" /><polygon fill="#63909e" opacity="0.7" points="211.5225,291.6597 211.5225,352.842 309.4141,352.842 309.4141,291.6597 211.5225,291.6597" stroke="black" stroke-width="1" /><polygon fill="#63909e" opacity="0.7" points="211.5225,227.4183 211.5225,288.6006 309.4141,288.6006 309.4141,227.4183 211.5225,227.4183" stroke="black" stroke-width="1" /><polygon fill="#63909e" opacity="0.7" points="211.5225,355.9011 211.5225,417.0834 309.4141,417.0834 309.4141,355.9011 211.5225,355.9011" stroke="black" stroke-width="1" /><polygon fill="#dcda53" opacity="0.7" points="152.8364,227.4183 152.8364,417.0834 385.8919,417.0834 385.8919,227.4183 152.8364,227.4183" stroke="black" stroke-width="1" /><polygon fill="#434127" opacity="0.7" points="211.5225,227.4183 211.5225,417.0834 385.8919,417.0834 385.8919,227.4183 211.5225,227.4183" stroke="black" stroke-width="1" /></svg>