<?xml version="1.0" encoding="UTF-8" standalone="no"?>
<svg
   xmlns:dc="http://purl.org/dc/elements/1.1/"
   xmlns:cc="http://creativecommons.org/ns#"
   xmlns:rdf="http://www.w3.org/1999/02/22-rdf-syntax-ns#"
   xmlns:svg="http://www.w3.org/2000/svg"
   xmlns="http://www.w3.org/2000/svg"
   xmlns:sodipodi="http://sodipodi.sourceforge.net/DTD/sodipodi-0.dtd"
   xmlns:inkscape="http://www.inkscape.org/namespaces/inkscape"
   width="800"
   height="600"
   viewBox="0 0 579.717935208035 600.0"
   version="1.1"
   id="svg_spaces"
   inkscape:version="1.0"
   sodipodi:docname="spaces.svg">
  <defs
     id="defs" />
  <sodipodi:namedview
     id="base"
     pagecolor="#ffffff"
     bordercolor="#666666"
     borderopacity="1.0"
     inkscape:pageopacity="0.0"
     inkscape:pageshadow="2"
     inkscape:zoom="1"
     inkscape:cx="0"
     inkscape:cy="0"
     inkscape:document-units="px"
     inkscape:current-layer="layer1"
     showgrid="false" />
  <g
     inkscape:label="Spaces"
     inkscape:groupmode="layer"
     id="layer1">    <path
       id="space_0tKQ4bcJ991Pc4SPg6P8M7"
       style="fill:#63909e;fill-opacity:0.7;stroke:#000000;stroke-width:1"
       d="M 211.522482,291.659716 L 211.522482,352.841985 L 309.414112,352.841985 L 309.414112,291.659716 L 211.522482,291.659716 Z"
       inkscape:label="Büro" />
    <path
       id="space_264dv7pp1As8rJ9tI8DkGm"
       style="fill:#63909e;fill-opacity:0.7;stroke:#000000;stroke-width:1"
       d="M 152.836449,355.901099 L 152.836449,417.083368 L 309.414112,417.083368 L 309.414112,355.901099 L 152.836449,355.901099 Z"
       inkscape:label="Büro" />
    <path
       id="space_0RGPEQT7D7_gnmpntPO01R"
       style="fill:#c216dd;fill-opacity:0.7;stroke:#000000;stroke-width:1"
       d="M 312.473225,227.418334 L 312.473225,417.083368 L 385.891948,417.083368 L 385.891948,227.418334 L 312.473225,227.418334 Z"
       inkscape:label="Eingangsbereich" />
    <path
       id="space_0MvsuEqR9EWP0Fhf$6c8n5"
       style="fill:#63909e;fill-opacity:0.7;stroke:#000000;stroke-width:1"
       d="M 211.522482,227.418334 L 211.522482,288.600603 L 309.414112,288.600603 L 309.414112,227.418334 L 211.522482,227.418334 Z"
       inkscape:label="Büro" />
    <path
       id="space_2t0LvWo7v1chh9ls1iserM"
       style="fill:#30a0d7;fill-opacity:0.7;stroke:#000000;stroke-width:1"
       d="M 91.873145,217.629171 L 395.681111,217.629171 L 398.923772,527.662211 L 529.717935,550.000000 L 489.135597,111.593909 L 160.568597,50.000000 L 119.900257,50.000000 L 91.873145,217.629171 Z"
       inkscape:label="BUF" />
    <path
       id="space_37VWRD3Rj79RILAO6JmsmC"
       style="fill:#60f67f;fill-opacity:0.7;stroke:#000000;stroke-width:1"
       d="M 50.000000,468.070977 L 398.923772,527.662211 L 398.094825,426.872531 L 146.256111,426.872531 L 146.256111,345.818035 L 204.942144,345.866980 L 204.942144,217.629171 L 91.873145,217.629171 L 50.000000,468.070977 Z"
       inkscape:label="UUF" />
    <path
       id="space_1a3xgiKMv1g9hVbx3L0AlJ"
       style="fill:#65375f;fill-opacity:0.7;stroke:#000000;stroke-width:1"
       d="M 349.182587,227.418334 L 349.182587,417.083368 L 385.891948,417.083368 L 385.891948,227.418334 L 349.182587,227.418334 Z"
       inkscape:label="Luftraum" />
    <path
       id="space_27wGAU67LDvf_xrIGTTPnn"
       style="fill:#6d862f;fill-opacity:0.7;stroke:#000000;stroke-width:1"
       d="M 312.473225,227.418334 L 312.473225,417.083368 L 349.182587,417.083368 L 349.182587,227.418334 L 312.473225,227.418334 Z"
       inkscape:label="Flur" />
    <path
       id="space_1JbHP3cbHDKRL3nSR_KOpa"
       style="fill:#09711f;fill-opacity:0.7;stroke:#000000;stroke-width:1"
       d="M 152.836449,227.418334 L 152.836449,417.083368 L 201.782264,417.083368 L 201.782264,227.418334 L 152.836449,227.418334 Z"
       inkscape:label="Balkon" />
    <path
       id="space_2P3NoYPgb5hBqc4ezJkJYV"
       style="fill:#63909e;fill-opacity:0.7;stroke:#000000;stroke-width:1"
       d="M 211.522482,291.659716 L 211.522482,352.841985 L 309.414112,352.841985 L 309.414112,291.659716 L 211.522482,291.659716 Z"
       inkscape:label="Büro" />
    <path
       id="space_2I5QpeFq98MBuYZ1ESoFI9"
       style="fill:#63909e;fill-opacity:0.7;stroke:#000000;stroke-width:1"
       d="M 211.522482,227.418334 L 211.522482,288.600603 L 309.414112,288.600603 L 309.414112,227.418334 L 211.522482,227.418334 Z"
       inkscape:label="Büro" />
    <path
       id="space_2WllkenNPEROqWYrH1ZuQD"
       style="fill:#63909e;fill-opacity:0.7;stroke:#000000;stroke-width:1"
       d="M 211.522482,355.901099 L 211.522482,417.083368 L 309.414112,417.083368 L 309.414112,355.901099 L 211.522482,355.901099 Z"
       inkscape:label="Büro" />
    <path
       id="space_0YbXTLaPf18AltEWq3WAEH"
       style="fill:#dcda53;fill-opacity:0.7;stroke:#000000;stroke-width:1"
       d="M 152.836449,227.418334 L 152.836449,417.083368 L 385.891948,417.083368 L 385.891948,227.418334 L 152.836449,227.418334 Z"
       inkscape:label="Flachdach" />
    <path
       id="space_1R1f5ig8f2n9tJiDInF$9J"
       style="fill:#434127;fill-opacity:0.7;stroke:#000000;stroke-width:1"
       d="M 211.522482,227.418334 L 211.522482,417.083368 L 385.891948,417.083368 L 385.891948,227.418334 L 211.522482,227.418334 Z"
       inkscape:label="Keller" />  </g>
</svg>